<?xml version="1.0" encoding="UTF-8" standalone="no"?>
<!-- Created with Inkscape (http://www.inkscape.org/) -->

<svg
   version="1.1"
   id="svg1"
   width="139.68918"
   height="139.3157"
   viewBox="0 0 139.68918 139.3157"
   sodipodi:docname="coreldraw-x7-seeklogo.eps"
   xmlns:inkscape="http://www.inkscape.org/namespaces/inkscape"
   xmlns:sodipodi="http://sodipodi.sourceforge.net/DTD/sodipodi-0.dtd"
   xmlns="http://www.w3.org/2000/svg"
   xmlns:svg="http://www.w3.org/2000/svg">
  <defs
     id="defs1" />
  <sodipodi:namedview
     id="namedview1"
     pagecolor="#ffffff"
     bordercolor="#000000"
     borderopacity="0.25"
     inkscape:showpageshadow="2"
     inkscape:pageopacity="0.0"
     inkscape:pagecheckerboard="0"
     inkscape:deskcolor="#d1d1d1" />
  <g
     id="g1"
     inkscape:groupmode="layer"
     inkscape:label="1"
     transform="translate(-37.282727,-41.425728)">
    <path
       id="path1"
       d="M 37.282727,41.425727 H 176.97191 V 180.74142 H 37.282727 V 41.425727"
       style="fill:#5faa44;fill-opacity:1;fill-rule:evenodd;stroke:none;stroke-width:0.0746999" />
    <path
       id="path2"
       d="m 37.282727,67.716377 c 4.891099,4.0196 10.538512,10.3071 15.306759,15.06399 5.161617,5.14907 9.796225,9.7334 14.965387,14.875 L 90.005418,119.9675 c 2.948631,2.95677 3.279477,4.55288 1.775916,6.88053 -3.610472,5.58823 -7.404407,1.43506 -10.635404,-1.7718 C 74.603261,118.58234 40.971038,84.051757 37.282727,82.105077 V 109.2854 c 3.129518,2.20216 6.544418,6.1992 9.474038,9.1128 3.299945,3.28179 6.05331,6.01566 9.348026,9.30156 5.976294,5.96053 12.137844,12.74366 18.330619,18.23149 3.062698,2.714 8.193687,4.55521 12.056496,6.61969 4.081082,2.18086 7.5931,4.15608 11.615543,6.23976 5.246771,2.71841 34.565901,21.46459 25.251571,2.38577 L 101.45147,119.72965 62.931619,81.405887 C 58.837763,77.328017 40.196026,58.197367 37.282727,56.297747 v 11.41863"
       style="fill:#ffffff;fill-opacity:1;fill-rule:evenodd;stroke:none;stroke-width:0.0746999" />
    <path
       id="path3"
       d="m 152.51814,125.33334 -27.1848,0.0163 3.74545,16.40134 19.79549,0.0666 3.64386,-16.48419"
       style="fill:#afd4a1;fill-opacity:1;fill-rule:evenodd;stroke:none;stroke-width:0.0746999" />
    <path
       id="path4"
       d="m 83.544769,41.425727 h -4.732092 c 3.279477,12.12306 14.292789,30.14293 20.398613,39.34895 8.68917,13.10013 16.22356,21.353723 26.506,32.576873 C 111.97923,95.735577 88.256095,60.590747 83.544769,41.425727 Z m 55.339881,0 v 74.804383 h -0.32121 c -0.75447,-0.005 -1.70092,-0.0464 -2.91255,-0.058 -5.94238,-26.334053 -13.51322,-44.300883 -16.76042,-74.746343 z m -36.25614,0 H 89.537647 C 93.64704,59.058657 116.40893,101.86546 131.77322,114.688 119.878,94.431317 109.01805,67.511697 102.62851,41.425727"
       style="fill:#afd4a1;fill-opacity:1;fill-rule:evenodd;stroke:none;stroke-width:0.0746999" />
    <path
       id="path5"
       d="m 176.97191,81.879487 c -8.38133,12.46593 -15.77737,20.567883 -25.76774,31.472063 7.23245,-9.27423 17.23103,-23.405963 25.76774,-37.507073 z m -38.93436,-40.45376 v 74.804383 h 0.32047 c 0.75447,-0.005 1.70091,-0.0464 2.91255,-0.058 5.94238,-26.334053 13.51322,-44.300883 16.76042,-74.746343 z m 36.25488,0 h 2.67948 v 26.13004 c -9.06782,18.34258 -21.96776,38.906723 -31.82367,47.132233 11.89447,-20.256683 22.7551,-47.176303 29.14419,-73.262273"
       style="fill:#afd4a1;fill-opacity:1;fill-rule:evenodd;stroke:none;stroke-width:0.0746999" />
  </g>
</svg>
